<?xml version="1.0" standalone="no"?>
<!DOCTYPE svg PUBLIC "-//W3C//DTD SVG 20010904//EN"
 "http://www.w3.org/TR/2001/REC-SVG-20010904/DTD/svg10.dtd">
<svg version="1.0" xmlns="http://www.w3.org/2000/svg"
 width="1471.000000pt" height="1471.000000pt" viewBox="0 0 1471.000000 1471.000000"
 preserveAspectRatio="xMidYMid meet">
<metadata>
Created by potrace 1.14, written by Peter Selinger 2001-2017
</metadata>
<g transform="translate(0.000000,1471.000000) scale(0.100000,-0.100000)"
fill="#000000" stroke="none">
<path d="M0 7355 l0 -7355 7355 0 7355 0 0 7355 0 7355 -7355 0 -7355 0 0
-7355z m7920 4331 c1207 -105 2235 -486 3160 -1169 283 -210 514 -409 780
-676 305 -306 513 -549 732 -859 331 -466 554 -878 801 -1482 205 -503 309
-856 386 -1310 56 -329 77 -570 75 -865 -1 -199 -30 -654 -42 -667 -7 -7
-12932 -26 -12942 -20 -3 2 -5 207 -4 455 0 458 8 594 50 917 170 1313 732
2541 1605 3510 618 685 1215 1152 1954 1525 753 381 1545 597 2395 654 193 13
841 5 1050 -13z"/>
<path d="M6972 10840 c-1162 -62 -2255 -498 -3165 -1263 -162 -136 -562 -535
-718 -717 -753 -876 -1223 -1970 -1334 -3105 -23 -240 -24 -245 -14 -250 4 -3
2538 -3 5629 1 l5622 7 -7 86 c-41 534 -158 1005 -390 1576 -300 741 -658
1319 -1146 1850 -498 542 -1021 944 -1634 1254 -623 316 -1284 495 -2025 550
-196 15 -641 21 -818 11z m-1082 -1813 c545 -94 840 -377 943 -902 29 -149 31
-530 4 -670 -101 -513 -381 -785 -912 -889 -144 -28 -368 -35 -960 -30 -319 3
-586 5 -592 4 -10 0 -13 258 -13 1255 l0 1256 718 -4 c610 -3 731 -6 812 -20z
m2110 -387 l0 -410 315 0 315 0 2 408 3 407 470 0 470 0 3 -1252 2 -1253 -22
-5 c-13 -3 -225 -4 -473 -3 l-450 3 -5 410 -5 410 -290 3 c-159 1 -300 0 -312
-3 l-23 -5 -2 -408 -3 -407 -465 0 -465 0 -3 1258 -2 1257 470 0 470 0 0 -410z"/>
<path d="M5315 8268 c-3 -7 -4 -238 -3 -513 l3 -500 113 2 c177 3 268 28 349
97 77 67 111 169 120 361 13 297 -44 459 -184 521 -81 36 -387 60 -398 32z"/>
</g>
</svg>
